<?xml version="1.0" encoding="UTF-8" standalone="no"?>
<!-- Generator: Adobe Illustrator 19.0.0, SVG Export Plug-In . SVG Version: 6.00 Build 0)  -->

<svg
   xmlns:dc="http://purl.org/dc/elements/1.1/"
   xmlns:cc="http://creativecommons.org/ns#"
   xmlns:rdf="http://www.w3.org/1999/02/22-rdf-syntax-ns#"
   xmlns:svg="http://www.w3.org/2000/svg"
   xmlns="http://www.w3.org/2000/svg"
   xmlns:sodipodi="http://sodipodi.sourceforge.net/DTD/sodipodi-0.dtd"
   xmlns:inkscape="http://www.inkscape.org/namespaces/inkscape"
   version="1.1"
   id="Layer_1"
   x="0px"
   y="0px"
   viewBox="0 0 511.999 511.999"
   style="enable-background:new 0 0 511.999 511.999;"
   xml:space="preserve"
   sodipodi:docname="earth.svg"
   inkscape:version="0.92.4 (5da689c313, 2019-01-14)"><metadata
   id="metadata67"><rdf:RDF><cc:Work
       rdf:about=""><dc:format>image/svg+xml</dc:format><dc:type
         rdf:resource="http://purl.org/dc/dcmitype/StillImage" /><dc:title></dc:title></cc:Work></rdf:RDF></metadata><defs
   id="defs65" /><sodipodi:namedview
   pagecolor="#ffffff"
   bordercolor="#666666"
   borderopacity="1"
   objecttolerance="10"
   gridtolerance="10"
   guidetolerance="10"
   inkscape:pageopacity="0"
   inkscape:pageshadow="2"
   inkscape:window-width="1920"
   inkscape:window-height="1017"
   id="namedview63"
   showgrid="false"
   inkscape:zoom="1"
   inkscape:cx="40.018918"
   inkscape:cy="316.18199"
   inkscape:window-x="-8"
   inkscape:window-y="-8"
   inkscape:window-maximized="1"
   inkscape:current-layer="Layer_1" />
<path
   style="fill:#00112b"
   d="M52.683,397.719c44.79,64.144,119.147,106.111,203.316,106.111c82.092,0,154.849-39.92,199.944-101.4  l-24.278-22.349l50.359-22.349c10.427-23.132,17.421-48.144,20.301-74.397l0.009-0.114l-96.361-88.588l16.309-122.39  C378.311,32.426,319.988,8.171,255.999,8.171c-136.872,0-247.83,110.957-247.83,247.829c0,2.427,0.045,4.845,0.113,7.254  c0-0.017-0.001-0.036-0.002-0.053l67.24,67.048L52.683,397.719z"
   id="path2" />
<g
   id="g16"
   style="fill:#00112b">
	<circle
   style="fill:#00112b"
   cx="120.388"
   cy="183.989"
   r="22.349"
   id="circle4" />
	<circle
   style="fill:#00112b"
   cx="188.105"
   cy="91.019"
   r="18.017"
   id="circle6" />
	<circle
   style="fill:#00112b"
   cx="255.997"
   cy="453.126"
   r="18.017"
   id="circle8" />
	<path
   style="fill:#00112b"
   d="M503.828,255.999c0-72.882-31.464-138.413-81.546-183.759H278.348   c-12.343,0-22.349,10.006-22.349,22.349s10.006,22.349,22.349,22.349h62.575c12.343,0,22.349,10.006,22.349,22.349   s-10.006,22.349-22.349,22.349H218.431c-12.343,0-22.349,10.006-22.349,22.349c0,12.343,10.006,22.349,22.349,22.349h122.492   c12.343,0,22.349,10.006,22.349,22.349s-10.006,22.349-22.349,22.349h-68.834c-8.887,0-16.092,7.204-16.092,16.092   c0,8.887,7.204,16.092,16.092,16.092h230.244C503.31,274.279,503.828,265.201,503.828,255.999z"
   id="path10" />
	<path
   style="fill:#00112b"
   d="M482.05,357.731h-78.421c-12.343,0-22.349,10.006-22.349,22.349s10.006,22.349,22.349,22.349h52.314   C466.122,388.555,474.901,373.591,482.05,357.731z"
   id="path12" />
	<path
   style="fill:#00112b"
   d="M297.298,352.599H130.14c-12.343,0-22.349-10.006-22.349-22.349s10.006-22.349,22.349-22.349h52.771   c12.343,0,22.349-10.006,22.349-22.349s-10.006-22.349-22.349-22.349H49.524H8.28c1.421,49.767,17.519,95.851,44.109,134.097   h244.908c12.343,0,22.349-10.006,22.349-22.349S309.641,352.599,297.298,352.599z"
   id="path14" />
</g>

<path
   d="M462.706,104.902c-7.721-10.537-16.279-20.549-25.537-29.769c-0.05-0.05-0.098-0.102-0.149-0.153  C388.668,26.628,324.382,0,256.001,0c-61.9,0-121.65,22.395-168.245,63.058c-3.4,2.968-3.75,8.128-0.783,11.528  c2.968,3.401,8.129,3.75,11.528,0.784c43.617-38.066,99.553-59.029,157.5-59.029c52.472,0,102.362,16.759,143.58,47.729h-55.173  c-4.513,0-8.171,3.658-8.171,8.171c0,4.512,3.657,8.171,8.171,8.171h74.683c0.216,0.202,0.432,0.401,0.648,0.602  c11.19,10.469,21.376,22.009,30.396,34.396c0.266,0.365,0.531,0.73,0.793,1.096c9.098,12.692,16.943,26.271,23.468,40.663  c6.166,13.601,11.003,27.61,14.496,41.947c0.014,0.059,0.027,0.117,0.041,0.175c4.291,17.654,6.498,35.831,6.711,53.994  c0.065,5.639-0.074,11.284-0.41,16.914c-0.003,0.056-0.007,0.112-0.01,0.168c-0.094,1.56-0.202,3.121-0.325,4.682H272.092  c-4.367,0-7.921-3.554-7.921-7.921c0-4.367,3.554-7.921,7.921-7.921h68.835c16.828,0,30.52-13.692,30.52-30.521  c0-16.828-13.69-30.52-30.52-30.52H218.434c-7.819,0-14.18-6.36-14.18-14.179s6.361-14.18,14.18-14.18h122.492  c16.828,0,30.52-13.691,30.52-30.52s-13.69-30.521-30.52-30.521h-62.575c-7.819,0-14.18-6.36-14.18-14.179s6.361-14.18,14.18-14.18  h35.555c4.513,0,8.171-3.658,8.171-8.171s-3.657-8.171-8.171-8.171h-35.555c-16.829,0-30.521,13.692-30.521,30.521  c0,16.828,13.691,30.52,30.521,30.52h62.575c7.819,0,14.179,6.361,14.179,14.18c0,7.818-6.36,14.179-14.179,14.179H218.434  c-16.829,0-30.521,13.692-30.521,30.521c0,16.828,13.691,30.52,30.521,30.52h122.492c7.819,0,14.179,6.36,14.179,14.179  s-6.36,14.18-14.179,14.18h-68.835c-13.378,0-24.262,10.883-24.262,24.262c0,13.379,10.883,24.262,24.262,24.262h220.952  c-2.974,20.038-8.465,39.575-16.352,58.171h-73.06c-16.829,0-30.521,13.69-30.521,30.521c0,16.828,13.69,30.52,30.521,30.52h35.488  c-21.021,24.882-46.93,45.319-76.246,59.951c-4.037,2.015-5.677,6.922-3.661,10.959c1.43,2.866,4.318,4.523,7.318,4.523  c1.226,0,2.472-0.278,3.643-0.863c38.612-19.273,71.69-47.969,96.263-83.376c8.899-12.823,16.65-26.476,23.066-40.708  c0.021-0.047,0.034-0.096,0.053-0.143c13.746-30.565,21.352-63.642,22.331-97.477c0.011-0.353,0.019-0.706,0.028-1.059  c0.405-16.047-0.678-32.142-3.265-47.985c-0.71-4.347-1.52-8.681-2.456-12.986c-7.46-34.541-22.003-67.031-42.9-95.726  C463.097,105.443,462.903,105.171,462.706,104.902z M468.102,367.65c-0.315,0.596-0.625,1.194-0.945,1.787  c-0.171,0.318-0.349,0.634-0.522,0.952c-2.61,4.791-5.388,9.501-8.326,14.115c-1.108,1.741-2.241,3.463-3.391,5.171  c-0.398,0.59-0.796,1.182-1.199,1.769c-0.65,0.948-1.323,1.878-1.986,2.815h-48.1c-7.819,0-14.18-6.36-14.18-14.179  s6.361-14.18,14.18-14.18h65.388C468.718,366.485,468.409,367.067,468.102,367.65z"
   id="path20"
   style="fill:#ffffff" />
<path
   d="M150.908,183.988c0-16.829-13.691-30.521-30.521-30.521s-30.521,13.691-30.521,30.521c0,16.828,13.691,30.52,30.521,30.52  S150.908,200.816,150.908,183.988z M106.208,183.988c0-7.819,6.361-14.18,14.18-14.18s14.18,6.361,14.18,14.18  s-6.361,14.179-14.18,14.179S106.208,191.806,106.208,183.988z"
   id="path22"
   style="fill:#ffffff" />
<path
   d="M214.299,91.014c0-14.44-11.747-26.187-26.186-26.187c-14.44,0-26.187,11.747-26.187,26.187  c0,14.439,11.747,26.187,26.187,26.187C202.551,117.201,214.299,105.454,214.299,91.014z M178.266,91.014  c0-5.43,4.418-9.846,9.846-9.846c5.428,0,9.845,4.416,9.845,9.846c0,5.428-4.416,9.846-9.845,9.846  C182.683,100.86,178.266,96.444,178.266,91.014z"
   id="path24"
   style="fill:#ffffff" />
<path
   d="M229.814,453.128c0,14.439,11.747,26.187,26.187,26.187c14.44,0,26.187-11.748,26.187-26.187  c0-14.439-11.747-26.187-26.187-26.187C241.561,426.941,229.814,438.689,229.814,453.128z M265.847,453.128  c0,5.43-4.418,9.846-9.846,9.846c-5.428,0-9.846-4.416-9.846-9.846c0-5.428,4.418-9.846,9.846-9.846  C261.43,443.282,265.847,447.699,265.847,453.128z"
   id="path26"
   style="fill:#ffffff" />
<path
   d="M68.306,263.202c0,4.512,3.657,8.171,8.171,8.171h106.437c7.819,0,14.18,6.361,14.18,14.179s-6.361,14.179-14.18,14.179  h-52.771c-16.828,0-30.52,13.692-30.52,30.521c0,16.828,13.691,30.52,30.52,30.52H297.3c7.819,0,14.18,6.361,14.18,14.18  c0,7.818-6.361,14.179-14.18,14.179h-99.97c-4.513,0-8.171,3.658-8.171,8.171s3.657,8.171,8.171,8.171h99.97  c16.829,0,30.521-13.69,30.521-30.52s-13.69-30.521-30.521-30.521H130.143c-7.819,0-14.179-6.36-14.179-14.179  s6.36-14.18,14.179-14.18h52.771c16.829,0,30.521-13.69,30.521-30.52s-13.691-30.52-30.521-30.52H76.477  C71.963,255.031,68.306,258.689,68.306,263.202z"
   id="path28"
   style="fill:#ffffff" />
<path
   d="M0.135,264.267c0.139,4.343,0.39,8.683,0.751,13.013c0.009,0.099,0.017,0.198,0.025,0.297  c4.995,60.241,30.842,116.212,74.072,159.441c48.352,48.352,112.64,74.98,181.019,74.98c28.478,0,56.47-4.655,83.2-13.838  c4.267-1.466,6.539-6.114,5.072-10.382c-1.466-4.267-6.113-6.539-10.381-5.073c-25.018,8.593-51.225,12.951-77.891,12.951  c-64.015,0-124.198-24.929-169.465-70.194c-6.376-6.377-12.334-13.059-17.89-19.996h98.181c4.513,0,8.171-3.658,8.171-8.171  s-3.657-8.171-8.171-8.171H56.708c-23.423-34.988-37.095-75.287-39.839-117.299c-0.01-0.153-0.019-0.304-0.028-0.456h29.132  c4.513,0,8.171-3.658,8.171-8.171s-3.657-8.171-8.171-8.171H16.354c0.236-58.768,21.925-115.177,61.15-158.933  c3.012-3.36,2.73-8.526-0.631-11.538c-3.36-3.013-8.526-2.729-11.538,0.63C23.205,132.187,0.002,192.849,0.002,256.001  C0.002,258.757,0.045,261.513,0.135,264.267z"
   id="path30"
   style="fill:#ffffff" />
<g
   id="g32">
</g>
<g
   id="g34">
</g>
<g
   id="g36">
</g>
<g
   id="g38">
</g>
<g
   id="g40">
</g>
<g
   id="g42">
</g>
<g
   id="g44">
</g>
<g
   id="g46">
</g>
<g
   id="g48">
</g>
<g
   id="g50">
</g>
<g
   id="g52">
</g>
<g
   id="g54">
</g>
<g
   id="g56">
</g>
<g
   id="g58">
</g>
<g
   id="g60">
</g>
</svg>